<svg xmlns="http://www.w3.org/2000/svg" width="60" height="60" viewBox="0 0 60 60">
  <g fill="none" stroke="#FFFFFF" stroke-width="0.25" opacity="0.1">
    <path d="M10,0 L20,0 L30,17.32 L20,34.64 L10,34.64 L0,17.32 L10,0 Z M10,0 L20,0 L30,17.32 L20,34.64 L10,34.64 L0,17.32 L10,0 Z M40,0 L50,0 L60,17.32 L50,34.64 L40,34.64 L30,17.32 L40,0 Z M40,0 L50,0 L60,17.32 L50,34.64 L40,34.64 L30,17.32 L40,0 Z M10,34.64 L20,34.64 L30,51.96 L20,69.28 L10,69.28 L0,51.96 L10,34.64 Z M10,34.64 L20,34.64 L30,51.96 L20,69.28 L10,69.28 L0,51.96 L10,34.64 Z M40,34.64 L50,34.64 L60,51.96 L50,69.28 L40,69.28 L30,51.96 L40,34.64 Z M40,34.64 L50,34.64 L60,51.96 L50,69.28 L40,69.28 L30,51.96 L40,34.64 Z" />
    <path d="M10,-17.32 L20,-17.32 L30,0 L20,17.32 L10,17.32 L0,0 L10,-17.32 Z M10,-17.32 L20,-17.32 L30,0 L20,17.32 L10,17.32 L0,0 L10,-17.32 Z M40,-17.32 L50,-17.32 L60,0 L50,17.32 L40,17.32 L30,0 L40,-17.32 Z M40,-17.32 L50,-17.32 L60,0 L50,17.32 L40,17.32 L30,0 L40,-17.32 Z M10,17.32 L20,17.32 L30,34.64 L20,51.96 L10,51.96 L0,34.64 L10,17.32 Z M10,17.32 L20,17.32 L30,34.64 L20,51.96 L10,51.96 L0,34.64 L10,17.32 Z M40,17.32 L50,17.32 L60,34.64 L50,51.96 L40,51.96 L30,34.64 L40,17.32 Z M40,17.32 L50,17.32 L60,34.64 L50,51.96 L40,51.96 L30,34.64 L40,17.32 Z M10,51.96 L20,51.96 L30,69.28 L20,86.6 L10,86.6 L0,69.28 L10,51.96 Z M10,51.96 L20,51.96 L30,69.28 L20,86.6 L10,86.6 L0,69.28 L10,51.96 Z M40,51.96 L50,51.96 L60,69.28 L50,86.6 L40,86.6 L30,69.28 L40,51.96 Z M40,51.96 L50,51.96 L60,69.28 L50,86.6 L40,86.6 L30,69.28 L40,51.96 Z" />
  </g>
</svg>
