<svg xmlns="http://www.w3.org/2000/svg" width="60" height="60" viewBox="0 0 60 60">
  <g fill="none" fill-rule="evenodd" stroke="#000000" stroke-width="0.25" opacity="0.1">
    <circle cx="0" cy="0" r="15"></circle>
    <circle cx="0" cy="0" r="12"></circle>
    <circle cx="0" cy="0" r="9"></circle>
    <circle cx="0" cy="0" r="6"></circle>
    <circle cx="0" cy="0" r="3"></circle>
    <circle cx="30" cy="0" r="15"></circle>
    <circle cx="30" cy="0" r="12"></circle>
    <circle cx="30" cy="0" r="9"></circle>
    <circle cx="30" cy="0" r="6"></circle>
    <circle cx="30" cy="0" r="3"></circle>
    <circle cx="60" cy="0" r="15"></circle>
    <circle cx="60" cy="0" r="12"></circle>
    <circle cx="60" cy="0" r="9"></circle>
    <circle cx="60" cy="0" r="6"></circle>
    <circle cx="60" cy="0" r="3"></circle>
    <circle cx="15" cy="30" r="15"></circle>
    <circle cx="15" cy="30" r="12"></circle>
    <circle cx="15" cy="30" r="9"></circle>
    <circle cx="15" cy="30" r="6"></circle>
    <circle cx="15" cy="30" r="3"></circle>
    <circle cx="45" cy="30" r="15"></circle>
    <circle cx="45" cy="30" r="12"></circle>
    <circle cx="45" cy="30" r="9"></circle>
    <circle cx="45" cy="30" r="6"></circle>
    <circle cx="45" cy="30" r="3"></circle>
    <circle cx="0" cy="60" r="15"></circle>
    <circle cx="0" cy="60" r="12"></circle>
    <circle cx="0" cy="60" r="9"></circle>
    <circle cx="0" cy="60" r="6"></circle>
    <circle cx="0" cy="60" r="3"></circle>
    <circle cx="30" cy="60" r="15"></circle>
    <circle cx="30" cy="60" r="12"></circle>
    <circle cx="30" cy="60" r="9"></circle>
    <circle cx="30" cy="60" r="6"></circle>
    <circle cx="30" cy="60" r="3"></circle>
    <circle cx="60" cy="60" r="15"></circle>
    <circle cx="60" cy="60" r="12"></circle>
    <circle cx="60" cy="60" r="9"></circle>
    <circle cx="60" cy="60" r="6"></circle>
    <circle cx="60" cy="60" r="3"></circle>
  </g>
</svg>
