<svg xmlns="http://www.w3.org/2000/svg" width="300" height="300" viewBox="0 0 300 300">
  <filter id="noise">
    <feTurbulence type="fractalNoise" baseFrequency="0.65" numOctaves="3" stitchTiles="stitch" />
    <feColorMatrix type="matrix" values="0 0 0 0 0, 0 0 0 0 0, 0 0 0 0 0, 0 0 0 0.1 0" />
  </filter>
  <rect width="300" height="300" filter="url(#noise)" opacity="0.3" />
  
  <!-- Horizontal fibers -->
  <g stroke="#000000" stroke-width="0.2" opacity="0.03">
    <path d="M0,20 L300,20" />
    <path d="M0,40 L300,40" />
    <path d="M0,60 L300,60" />
    <path d="M0,80 L300,80" />
    <path d="M0,100 L300,100" />
    <path d="M0,120 L300,120" />
    <path d="M0,140 L300,140" />
    <path d="M0,160 L300,160" />
    <path d="M0,180 L300,180" />
    <path d="M0,200 L300,200" />
    <path d="M0,220 L300,220" />
    <path d="M0,240 L300,240" />
    <path d="M0,260 L300,260" />
    <path d="M0,280 L300,280" />
  </g>
  
  <!-- Vertical fibers -->
  <g stroke="#000000" stroke-width="0.1" opacity="0.02">
    <path d="M20,0 L20,300" />
    <path d="M40,0 L40,300" />
    <path d="M60,0 L60,300" />
    <path d="M80,0 L80,300" />
    <path d="M100,0 L100,300" />
    <path d="M120,0 L120,300" />
    <path d="M140,0 L140,300" />
    <path d="M160,0 L160,300" />
    <path d="M180,0 L180,300" />
    <path d="M200,0 L200,300" />
    <path d="M220,0 L220,300" />
    <path d="M240,0 L240,300" />
    <path d="M260,0 L260,300" />
    <path d="M280,0 L280,300" />
  </g>
</svg>
